<svg width="1440" height="43" viewBox="0 0 1440 43" fill="none" xmlns="http://www.w3.org/2000/svg">
<rect x="0.5" y="0.5" width="1439" height="41" stroke="#E5E7EB"/>
<path d="M33.8501 17.7578V27H31.9521V17.7578H33.8501ZM38.4712 27H36.459L36.4717 25.5146H38.4712C38.9705 25.5146 39.3916 25.4025 39.7344 25.1782C40.0771 24.9497 40.3353 24.6175 40.5088 24.1816C40.6865 23.7458 40.7754 23.2189 40.7754 22.6011V22.1504C40.7754 21.6764 40.7246 21.2596 40.623 20.8999C40.5257 20.5402 40.3797 20.2376 40.1851 19.9922C39.9904 19.7467 39.7513 19.5627 39.4678 19.4399C39.1842 19.313 38.8584 19.2495 38.4902 19.2495H36.4209V17.7578H38.4902C39.1081 17.7578 39.673 17.8636 40.1851 18.0752C40.7013 18.2826 41.1478 18.5809 41.5244 18.9702C41.901 19.3595 42.1909 19.825 42.394 20.3667C42.6014 20.9041 42.7051 21.5029 42.7051 22.1631V22.6011C42.7051 23.257 42.6014 23.8558 42.394 24.3975C42.1909 24.9391 41.901 25.4046 41.5244 25.7939C41.152 26.179 40.7056 26.4774 40.1851 26.689C39.6688 26.8963 39.0975 27 38.4712 27ZM37.5381 17.7578V27H35.6338V17.7578H37.5381Z" fill="#64748B"/>
<path d="M106.583 19.3384L104.069 27H102.044L105.479 17.7578H106.767L106.583 19.3384ZM108.671 27L106.151 19.3384L105.948 17.7578H107.25L110.703 27H108.671ZM108.557 23.5596V25.0513H103.676V23.5596H108.557ZM115.317 19.3384L112.804 27H110.779L114.213 17.7578H115.501L115.317 19.3384ZM117.406 27L114.886 19.3384L114.683 17.7578H115.984L119.437 27H117.406ZM117.292 23.5596V25.0513H112.41V23.5596H117.292ZM127.816 17.7578V27H125.912L122.198 20.8047V27H120.294V17.7578H122.198L125.918 23.9595V17.7578H127.816ZM130.342 17.7578H131.955L134.329 24.5435L136.703 17.7578H138.315L134.976 27H133.681L130.342 17.7578ZM129.473 17.7578H131.079L131.371 24.3721V27H129.473V17.7578ZM137.579 17.7578H139.191V27H137.287V24.3721L137.579 17.7578ZM144.732 19.3384L142.219 27H140.194L143.628 17.7578H144.917L144.732 19.3384ZM146.821 27L144.301 19.3384L144.098 17.7578H145.399L148.852 27H146.821ZM146.707 23.5596V25.0513H141.825V23.5596H146.707ZM153.467 19.3384L150.953 27H148.928L152.362 17.7578H153.651L153.467 19.3384ZM155.555 27L153.035 19.3384L152.832 17.7578H154.133L157.586 27H155.555ZM155.441 23.5596V25.0513H150.56V23.5596H155.441ZM160.348 17.7578V27H158.443V17.7578H160.348ZM165.883 17.7578L162.22 22.3218L160.106 24.5942L159.764 22.7915L161.192 20.8364L163.547 17.7578H165.883ZM163.718 27L160.995 22.728L162.404 21.5474L165.972 27H163.718ZM169.545 27H167.533L167.546 25.5146H169.545C170.045 25.5146 170.466 25.4025 170.809 25.1782C171.151 24.9497 171.41 24.6175 171.583 24.1816C171.761 23.7458 171.85 23.2189 171.85 22.6011V22.1504C171.85 21.6764 171.799 21.2596 171.697 20.8999C171.6 20.5402 171.454 20.2376 171.259 19.9922C171.065 19.7467 170.826 19.5627 170.542 19.4399C170.258 19.313 169.933 19.2495 169.564 19.2495H167.495V17.7578H169.564C170.182 17.7578 170.747 17.8636 171.259 18.0752C171.776 18.2826 172.222 18.5809 172.599 18.9702C172.975 19.3595 173.265 19.825 173.468 20.3667C173.676 20.9041 173.779 21.5029 173.779 22.1631V22.6011C173.779 23.257 173.676 23.8558 173.468 24.3975C173.265 24.9391 172.975 25.4046 172.599 25.7939C172.226 26.179 171.78 26.4774 171.259 26.689C170.743 26.8963 170.172 27 169.545 27ZM168.612 17.7578V27H166.708V17.7578H168.612ZM178.781 19.3384L176.268 27H174.243L177.677 17.7578H178.965L178.781 19.3384ZM180.87 27L178.35 19.3384L178.146 17.7578H179.448L182.901 27H180.87ZM180.755 23.5596V25.0513H175.874V23.5596H180.755ZM187.103 17.7578V27H185.205V17.7578H187.103ZM189.947 17.7578V19.2495H182.406V17.7578H189.947ZM196.136 17.7578H198.034V23.8643C198.034 24.5752 197.881 25.174 197.577 25.6606C197.276 26.1473 196.859 26.5133 196.326 26.7588C195.797 27.0042 195.188 27.127 194.498 27.127C193.808 27.127 193.195 27.0042 192.657 26.7588C192.124 26.5133 191.705 26.1473 191.4 25.6606C191.1 25.174 190.95 24.5752 190.95 23.8643V17.7578H192.854V23.8643C192.854 24.279 192.92 24.6175 193.051 24.8799C193.182 25.1423 193.37 25.3348 193.616 25.4575C193.865 25.5802 194.16 25.6416 194.498 25.6416C194.845 25.6416 195.139 25.5802 195.38 25.4575C195.626 25.3348 195.812 25.1423 195.939 24.8799C196.07 24.6175 196.136 24.279 196.136 23.8643V17.7578ZM200.471 17.7578H202.083L204.458 24.5435L206.832 17.7578H208.444L205.105 27H203.81L200.471 17.7578ZM199.602 17.7578H201.208L201.5 24.3721V27H199.602V17.7578ZM207.708 17.7578H209.32V27H207.416V24.3721L207.708 17.7578Z" fill="#64748B"/>
<path d="M386.637 24.5815C386.637 24.4165 386.611 24.2684 386.561 24.1372C386.514 24.0018 386.425 23.8791 386.294 23.769C386.163 23.6548 385.979 23.5426 385.742 23.4326C385.505 23.3226 385.198 23.2083 384.821 23.0898C384.402 22.9544 384.005 22.8021 383.628 22.6328C383.256 22.4635 382.925 22.2668 382.638 22.0425C382.354 21.814 382.13 21.5495 381.965 21.249C381.804 20.9486 381.724 20.5994 381.724 20.2017C381.724 19.8166 381.808 19.4674 381.978 19.1543C382.147 18.8369 382.384 18.5661 382.688 18.3418C382.993 18.1133 383.353 17.9377 383.768 17.8149C384.187 17.6922 384.646 17.6309 385.145 17.6309C385.826 17.6309 386.421 17.7536 386.929 17.999C387.437 18.2445 387.83 18.5809 388.109 19.0083C388.393 19.4357 388.535 19.9245 388.535 20.4746H386.643C386.643 20.2038 386.586 19.9668 386.472 19.7637C386.362 19.5563 386.192 19.3934 385.964 19.2749C385.74 19.1564 385.456 19.0972 385.113 19.0972C384.783 19.0972 384.508 19.1479 384.288 19.2495C384.068 19.3468 383.903 19.4801 383.793 19.6494C383.683 19.8145 383.628 20.0007 383.628 20.208C383.628 20.3646 383.666 20.5063 383.742 20.6333C383.823 20.7603 383.941 20.8787 384.098 20.9888C384.254 21.0988 384.447 21.2025 384.675 21.2998C384.904 21.3971 385.168 21.4924 385.469 21.5854C385.972 21.7378 386.415 21.9092 386.795 22.0996C387.181 22.29 387.502 22.5037 387.76 22.7407C388.018 22.9777 388.213 23.2464 388.344 23.5469C388.475 23.8473 388.541 24.188 388.541 24.5688C388.541 24.9709 388.463 25.3306 388.306 25.6479C388.15 25.9653 387.923 26.234 387.627 26.4541C387.331 26.6742 386.977 26.8413 386.567 26.9556C386.156 27.0698 385.697 27.127 385.189 27.127C384.732 27.127 384.282 27.0677 383.837 26.9492C383.393 26.8265 382.989 26.6424 382.625 26.397C382.265 26.1515 381.978 25.8384 381.762 25.4575C381.546 25.0767 381.438 24.626 381.438 24.1055H383.349C383.349 24.3932 383.393 24.6366 383.482 24.8354C383.571 25.0343 383.696 25.1951 383.856 25.3179C384.021 25.4406 384.216 25.5295 384.44 25.5845C384.669 25.6395 384.919 25.667 385.189 25.667C385.52 25.667 385.79 25.6204 386.002 25.5273C386.218 25.4342 386.376 25.3052 386.478 25.1401C386.584 24.9751 386.637 24.7889 386.637 24.5815ZM395.193 23.9341H397.091C397.053 24.5562 396.882 25.1084 396.577 25.5908C396.277 26.0732 395.856 26.4499 395.314 26.7207C394.777 26.9915 394.129 27.127 393.372 27.127C392.779 27.127 392.248 27.0254 391.778 26.8223C391.309 26.6149 390.907 26.3187 390.572 25.9336C390.242 25.5485 389.99 25.083 389.817 24.5371C389.643 23.9912 389.557 23.3797 389.557 22.7026V22.0615C389.557 21.3844 389.646 20.7729 389.823 20.2271C390.005 19.6769 390.263 19.2093 390.598 18.8242C390.936 18.4391 391.34 18.1429 391.81 17.9355C392.28 17.7282 392.805 17.6245 393.384 17.6245C394.154 17.6245 394.804 17.7642 395.333 18.0435C395.866 18.3228 396.279 18.7078 396.571 19.1987C396.867 19.6896 397.045 20.2482 397.104 20.8745H395.2C395.179 20.5021 395.104 20.1868 394.978 19.9287C394.851 19.6663 394.658 19.4696 394.4 19.3384C394.146 19.203 393.807 19.1353 393.384 19.1353C393.067 19.1353 392.79 19.1945 392.553 19.313C392.316 19.4315 392.117 19.6113 391.956 19.8525C391.795 20.0938 391.675 20.3984 391.594 20.7666C391.518 21.1305 391.48 21.5579 391.48 22.0488V22.7026C391.48 23.1808 391.516 23.6019 391.588 23.9658C391.66 24.3255 391.77 24.6302 391.918 24.8799C392.07 25.1253 392.265 25.3115 392.502 25.4385C392.743 25.5612 393.033 25.6226 393.372 25.6226C393.769 25.6226 394.097 25.5591 394.355 25.4321C394.614 25.3052 394.81 25.1169 394.946 24.8672C395.085 24.6175 395.168 24.3065 395.193 23.9341ZM404.505 21.522V23.0073H399.681V21.522H404.505ZM400.246 17.7578V27H398.342V17.7578H400.246ZM405.864 17.7578V27H403.966V17.7578H405.864ZM415.112 22.1631V22.6011C415.112 23.3035 415.017 23.9341 414.827 24.4927C414.636 25.0513 414.368 25.5273 414.021 25.9209C413.674 26.3102 413.259 26.6086 412.776 26.8159C412.298 27.0233 411.767 27.127 411.183 27.127C410.603 27.127 410.072 27.0233 409.59 26.8159C409.112 26.6086 408.697 26.3102 408.346 25.9209C407.994 25.5273 407.722 25.0513 407.527 24.4927C407.336 23.9341 407.241 23.3035 407.241 22.6011V22.1631C407.241 21.4564 407.336 20.8258 407.527 20.2715C407.717 19.7129 407.986 19.2368 408.333 18.8433C408.684 18.4497 409.099 18.1493 409.577 17.9419C410.06 17.7345 410.591 17.6309 411.17 17.6309C411.754 17.6309 412.285 17.7345 412.764 17.9419C413.246 18.1493 413.661 18.4497 414.008 18.8433C414.359 19.2368 414.63 19.7129 414.82 20.2715C415.015 20.8258 415.112 21.4564 415.112 22.1631ZM413.189 22.6011V22.1504C413.189 21.6595 413.145 21.2279 413.056 20.8555C412.967 20.4831 412.836 20.1699 412.662 19.916C412.489 19.6621 412.277 19.4717 412.027 19.3447C411.778 19.2135 411.492 19.1479 411.17 19.1479C410.849 19.1479 410.563 19.2135 410.313 19.3447C410.068 19.4717 409.859 19.6621 409.685 19.916C409.516 20.1699 409.387 20.4831 409.298 20.8555C409.209 21.2279 409.165 21.6595 409.165 22.1504V22.6011C409.165 23.0877 409.209 23.5194 409.298 23.896C409.387 24.2684 409.518 24.5837 409.691 24.8418C409.865 25.0957 410.076 25.2882 410.326 25.4194C410.576 25.5506 410.861 25.6162 411.183 25.6162C411.505 25.6162 411.79 25.5506 412.04 25.4194C412.29 25.2882 412.499 25.0957 412.668 24.8418C412.838 24.5837 412.967 24.2684 413.056 23.896C413.145 23.5194 413.189 23.0877 413.189 22.6011ZM424.075 22.1631V22.6011C424.075 23.3035 423.98 23.9341 423.79 24.4927C423.599 25.0513 423.33 25.5273 422.983 25.9209C422.636 26.3102 422.222 26.6086 421.739 26.8159C421.261 27.0233 420.73 27.127 420.146 27.127C419.566 27.127 419.035 27.0233 418.553 26.8159C418.075 26.6086 417.66 26.3102 417.309 25.9209C416.957 25.5273 416.684 25.0513 416.49 24.4927C416.299 23.9341 416.204 23.3035 416.204 22.6011V22.1631C416.204 21.4564 416.299 20.8258 416.49 20.2715C416.68 19.7129 416.949 19.2368 417.296 18.8433C417.647 18.4497 418.062 18.1493 418.54 17.9419C419.022 17.7345 419.554 17.6309 420.133 17.6309C420.717 17.6309 421.248 17.7345 421.727 17.9419C422.209 18.1493 422.624 18.4497 422.971 18.8433C423.322 19.2368 423.593 19.7129 423.783 20.2715C423.978 20.8258 424.075 21.4564 424.075 22.1631ZM422.152 22.6011V22.1504C422.152 21.6595 422.107 21.2279 422.019 20.8555C421.93 20.4831 421.799 20.1699 421.625 19.916C421.451 19.6621 421.24 19.4717 420.99 19.3447C420.741 19.2135 420.455 19.1479 420.133 19.1479C419.812 19.1479 419.526 19.2135 419.276 19.3447C419.031 19.4717 418.821 19.6621 418.648 19.916C418.479 20.1699 418.35 20.4831 418.261 20.8555C418.172 21.2279 418.127 21.6595 418.127 22.1504V22.6011C418.127 23.0877 418.172 23.5194 418.261 23.896C418.35 24.2684 418.481 24.5837 418.654 24.8418C418.828 25.0957 419.039 25.2882 419.289 25.4194C419.539 25.5506 419.824 25.6162 420.146 25.6162C420.468 25.6162 420.753 25.5506 421.003 25.4194C421.253 25.2882 421.462 25.0957 421.631 24.8418C421.801 24.5837 421.93 24.2684 422.019 23.896C422.107 23.5194 422.152 23.0877 422.152 22.6011ZM431.388 25.5146V27H426.735V25.5146H431.388ZM427.351 17.7578V27H425.446V17.7578H427.351ZM440.001 17.7578V27H438.097L434.384 20.8047V27H432.479V17.7578H434.384L438.104 23.9595V17.7578H440.001ZM445.53 19.3384L443.017 27H440.992L444.426 17.7578H445.714L445.53 19.3384ZM447.619 27L445.099 19.3384L444.896 17.7578H446.197L449.65 27H447.619ZM447.504 23.5596V25.0513H442.623V23.5596H447.504ZM454.265 19.3384L451.751 27H449.726L453.16 17.7578H454.449L454.265 19.3384ZM456.353 27L453.833 19.3384L453.63 17.7578H454.931L458.384 27H456.353ZM456.239 23.5596V25.0513H451.357V23.5596H456.239ZM460.111 17.7578H461.723L464.097 24.5435L466.471 17.7578H468.083L464.745 27H463.45L460.111 17.7578ZM459.241 17.7578H460.847L461.139 24.3721V27H459.241V17.7578ZM467.347 17.7578H468.959V27H467.055V24.3721L467.347 17.7578Z" fill="#64748B"/>
<path d="M260.637 24.5815C260.637 24.4165 260.611 24.2684 260.561 24.1372C260.514 24.0018 260.425 23.8791 260.294 23.769C260.163 23.6548 259.979 23.5426 259.742 23.4326C259.505 23.3226 259.198 23.2083 258.821 23.0898C258.402 22.9544 258.005 22.8021 257.628 22.6328C257.256 22.4635 256.925 22.2668 256.638 22.0425C256.354 21.814 256.13 21.5495 255.965 21.249C255.804 20.9486 255.724 20.5994 255.724 20.2017C255.724 19.8166 255.808 19.4674 255.978 19.1543C256.147 18.8369 256.384 18.5661 256.688 18.3418C256.993 18.1133 257.353 17.9377 257.768 17.8149C258.187 17.6922 258.646 17.6309 259.145 17.6309C259.826 17.6309 260.421 17.7536 260.929 17.999C261.437 18.2445 261.83 18.5809 262.109 19.0083C262.393 19.4357 262.535 19.9245 262.535 20.4746H260.643C260.643 20.2038 260.586 19.9668 260.472 19.7637C260.362 19.5563 260.192 19.3934 259.964 19.2749C259.74 19.1564 259.456 19.0972 259.113 19.0972C258.783 19.0972 258.508 19.1479 258.288 19.2495C258.068 19.3468 257.903 19.4801 257.793 19.6494C257.683 19.8145 257.628 20.0007 257.628 20.208C257.628 20.3646 257.666 20.5063 257.742 20.6333C257.823 20.7603 257.941 20.8787 258.098 20.9888C258.254 21.0988 258.447 21.2025 258.675 21.2998C258.904 21.3971 259.168 21.4924 259.469 21.5854C259.972 21.7378 260.415 21.9092 260.795 22.0996C261.181 22.29 261.502 22.5037 261.76 22.7407C262.018 22.9777 262.213 23.2464 262.344 23.5469C262.475 23.8473 262.541 24.188 262.541 24.5688C262.541 24.9709 262.463 25.3306 262.306 25.6479C262.15 25.9653 261.923 26.234 261.627 26.4541C261.331 26.6742 260.977 26.8413 260.567 26.9556C260.156 27.0698 259.697 27.127 259.189 27.127C258.732 27.127 258.282 27.0677 257.837 26.9492C257.393 26.8265 256.989 26.6424 256.625 26.397C256.265 26.1515 255.978 25.8384 255.762 25.4575C255.546 25.0767 255.438 24.626 255.438 24.1055H257.349C257.349 24.3932 257.393 24.6366 257.482 24.8354C257.571 25.0343 257.696 25.1951 257.856 25.3179C258.021 25.4406 258.216 25.5295 258.44 25.5845C258.669 25.6395 258.919 25.667 259.189 25.667C259.52 25.667 259.79 25.6204 260.002 25.5273C260.218 25.4342 260.376 25.3052 260.478 25.1401C260.584 24.9751 260.637 24.7889 260.637 24.5815ZM269.193 23.9341H271.091C271.053 24.5562 270.882 25.1084 270.577 25.5908C270.277 26.0732 269.856 26.4499 269.314 26.7207C268.777 26.9915 268.129 27.127 267.372 27.127C266.779 27.127 266.248 27.0254 265.778 26.8223C265.309 26.6149 264.907 26.3187 264.572 25.9336C264.242 25.5485 263.99 25.083 263.817 24.5371C263.643 23.9912 263.557 23.3797 263.557 22.7026V22.0615C263.557 21.3844 263.646 20.7729 263.823 20.2271C264.005 19.6769 264.263 19.2093 264.598 18.8242C264.936 18.4391 265.34 18.1429 265.81 17.9355C266.28 17.7282 266.805 17.6245 267.384 17.6245C268.154 17.6245 268.804 17.7642 269.333 18.0435C269.866 18.3228 270.279 18.7078 270.571 19.1987C270.867 19.6896 271.045 20.2482 271.104 20.8745H269.2C269.179 20.5021 269.104 20.1868 268.978 19.9287C268.851 19.6663 268.658 19.4696 268.4 19.3384C268.146 19.203 267.807 19.1353 267.384 19.1353C267.067 19.1353 266.79 19.1945 266.553 19.313C266.316 19.4315 266.117 19.6113 265.956 19.8525C265.795 20.0938 265.675 20.3984 265.594 20.7666C265.518 21.1305 265.48 21.5579 265.48 22.0488V22.7026C265.48 23.1808 265.516 23.6019 265.588 23.9658C265.66 24.3255 265.77 24.6302 265.918 24.8799C266.07 25.1253 266.265 25.3115 266.502 25.4385C266.743 25.5612 267.033 25.6226 267.372 25.6226C267.769 25.6226 268.097 25.5591 268.355 25.4321C268.614 25.3052 268.81 25.1169 268.946 24.8672C269.085 24.6175 269.168 24.3065 269.193 23.9341ZM278.505 21.522V23.0073H273.681V21.522H278.505ZM274.246 17.7578V27H272.342V17.7578H274.246ZM279.864 17.7578V27H277.966V17.7578H279.864ZM289.112 22.1631V22.6011C289.112 23.3035 289.017 23.9341 288.827 24.4927C288.636 25.0513 288.368 25.5273 288.021 25.9209C287.674 26.3102 287.259 26.6086 286.776 26.8159C286.298 27.0233 285.767 27.127 285.183 27.127C284.603 27.127 284.072 27.0233 283.59 26.8159C283.112 26.6086 282.697 26.3102 282.346 25.9209C281.994 25.5273 281.722 25.0513 281.527 24.4927C281.336 23.9341 281.241 23.3035 281.241 22.6011V22.1631C281.241 21.4564 281.336 20.8258 281.527 20.2715C281.717 19.7129 281.986 19.2368 282.333 18.8433C282.684 18.4497 283.099 18.1493 283.577 17.9419C284.06 17.7345 284.591 17.6309 285.17 17.6309C285.754 17.6309 286.285 17.7345 286.764 17.9419C287.246 18.1493 287.661 18.4497 288.008 18.8433C288.359 19.2368 288.63 19.7129 288.82 20.2715C289.015 20.8258 289.112 21.4564 289.112 22.1631ZM287.189 22.6011V22.1504C287.189 21.6595 287.145 21.2279 287.056 20.8555C286.967 20.4831 286.836 20.1699 286.662 19.916C286.489 19.6621 286.277 19.4717 286.027 19.3447C285.778 19.2135 285.492 19.1479 285.17 19.1479C284.849 19.1479 284.563 19.2135 284.313 19.3447C284.068 19.4717 283.859 19.6621 283.685 19.916C283.516 20.1699 283.387 20.4831 283.298 20.8555C283.209 21.2279 283.165 21.6595 283.165 22.1504V22.6011C283.165 23.0877 283.209 23.5194 283.298 23.896C283.387 24.2684 283.518 24.5837 283.691 24.8418C283.865 25.0957 284.076 25.2882 284.326 25.4194C284.576 25.5506 284.861 25.6162 285.183 25.6162C285.505 25.6162 285.79 25.5506 286.04 25.4194C286.29 25.2882 286.499 25.0957 286.668 24.8418C286.838 24.5837 286.967 24.2684 287.056 23.896C287.145 23.5194 287.189 23.0877 287.189 22.6011ZM298.075 22.1631V22.6011C298.075 23.3035 297.98 23.9341 297.79 24.4927C297.599 25.0513 297.33 25.5273 296.983 25.9209C296.636 26.3102 296.222 26.6086 295.739 26.8159C295.261 27.0233 294.73 27.127 294.146 27.127C293.566 27.127 293.035 27.0233 292.553 26.8159C292.075 26.6086 291.66 26.3102 291.309 25.9209C290.957 25.5273 290.684 25.0513 290.49 24.4927C290.299 23.9341 290.204 23.3035 290.204 22.6011V22.1631C290.204 21.4564 290.299 20.8258 290.49 20.2715C290.68 19.7129 290.949 19.2368 291.296 18.8433C291.647 18.4497 292.062 18.1493 292.54 17.9419C293.022 17.7345 293.554 17.6309 294.133 17.6309C294.717 17.6309 295.248 17.7345 295.727 17.9419C296.209 18.1493 296.624 18.4497 296.971 18.8433C297.322 19.2368 297.593 19.7129 297.783 20.2715C297.978 20.8258 298.075 21.4564 298.075 22.1631ZM296.152 22.6011V22.1504C296.152 21.6595 296.107 21.2279 296.019 20.8555C295.93 20.4831 295.799 20.1699 295.625 19.916C295.451 19.6621 295.24 19.4717 294.99 19.3447C294.741 19.2135 294.455 19.1479 294.133 19.1479C293.812 19.1479 293.526 19.2135 293.276 19.3447C293.031 19.4717 292.821 19.6621 292.648 19.916C292.479 20.1699 292.35 20.4831 292.261 20.8555C292.172 21.2279 292.127 21.6595 292.127 22.1504V22.6011C292.127 23.0877 292.172 23.5194 292.261 23.896C292.35 24.2684 292.481 24.5837 292.654 24.8418C292.828 25.0957 293.039 25.2882 293.289 25.4194C293.539 25.5506 293.824 25.6162 294.146 25.6162C294.468 25.6162 294.753 25.5506 295.003 25.4194C295.253 25.2882 295.462 25.0957 295.631 24.8418C295.801 24.5837 295.93 24.2684 296.019 23.896C296.107 23.5194 296.152 23.0877 296.152 22.6011ZM305.388 25.5146V27H300.735V25.5146H305.388ZM301.351 17.7578V27H299.446V17.7578H301.351ZM314.001 17.7578V27H312.097L308.384 20.8047V27H306.479V17.7578H308.384L312.104 23.9595V17.7578H314.001ZM320.762 17.7578H322.66V23.8643C322.66 24.5752 322.507 25.174 322.203 25.6606C321.902 26.1473 321.485 26.5133 320.952 26.7588C320.423 27.0042 319.814 27.127 319.124 27.127C318.434 27.127 317.821 27.0042 317.283 26.7588C316.75 26.5133 316.331 26.1473 316.026 25.6606C315.726 25.174 315.576 24.5752 315.576 23.8643V17.7578H317.48V23.8643C317.48 24.279 317.546 24.6175 317.677 24.8799C317.808 25.1423 317.996 25.3348 318.242 25.4575C318.491 25.5802 318.785 25.6416 319.124 25.6416C319.471 25.6416 319.765 25.5802 320.006 25.4575C320.252 25.3348 320.438 25.1423 320.565 24.8799C320.696 24.6175 320.762 24.279 320.762 23.8643V17.7578ZM325.097 17.7578H326.709L329.083 24.5435L331.458 17.7578H333.07L329.731 27H328.436L325.097 17.7578ZM324.228 17.7578H325.833L326.125 24.3721V27H324.228V17.7578ZM332.333 17.7578H333.946V27H332.042V24.3721L332.333 17.7578ZM336.485 17.7578H338.097L340.471 24.5435L342.845 17.7578H344.458L341.119 27H339.824L336.485 17.7578ZM335.615 17.7578H337.221L337.513 24.3721V27H335.615V17.7578ZM343.721 17.7578H345.333V27H343.429V24.3721L343.721 17.7578ZM353.205 25.5146V27H348.285V25.5146H353.205ZM348.907 17.7578V27H347.003V17.7578H348.907ZM352.563 21.522V22.9692H348.285V21.522H352.563ZM353.198 17.7578V19.2495H348.285V17.7578H353.198ZM354.315 17.7578H357.762C358.469 17.7578 359.076 17.8636 359.584 18.0752C360.096 18.2868 360.49 18.5999 360.765 19.0146C361.04 19.4294 361.177 19.9393 361.177 20.5444C361.177 21.0396 361.093 21.4648 360.923 21.8203C360.758 22.1715 360.523 22.4657 360.219 22.7026C359.918 22.9354 359.565 23.1216 359.159 23.2612L358.556 23.5786H355.56L355.547 22.0933H357.775C358.109 22.0933 358.386 22.034 358.606 21.9155C358.826 21.797 358.992 21.632 359.102 21.4204C359.216 21.2088 359.273 20.9634 359.273 20.6841C359.273 20.3879 359.218 20.1318 359.108 19.916C358.998 19.7002 358.831 19.5352 358.606 19.4209C358.382 19.3066 358.101 19.2495 357.762 19.2495H356.22V27H354.315V17.7578ZM359.482 27L357.375 22.8804L359.387 22.8677L361.52 26.9111V27H359.482Z" fill="#64748B"/>
<path d="M645.958 17.7578V27H644.06V17.7578H645.958ZM648.801 17.7578V19.2495H641.26V17.7578H648.801ZM651.258 17.7578L653.188 21.9727L655.117 17.7578H657.193L654.152 23.6357V27H652.223V23.6357L649.176 17.7578H651.258ZM661.636 23.7056H659.281V22.2202H661.636C662 22.2202 662.296 22.161 662.525 22.0425C662.753 21.9198 662.921 21.7505 663.026 21.5347C663.132 21.3188 663.185 21.0755 663.185 20.8047C663.185 20.5296 663.132 20.2736 663.026 20.0366C662.921 19.7996 662.753 19.6092 662.525 19.4653C662.296 19.3215 662 19.2495 661.636 19.2495H659.941V27H658.037V17.7578H661.636C662.36 17.7578 662.98 17.889 663.496 18.1514C664.017 18.4095 664.414 18.7671 664.689 19.2241C664.965 19.6812 665.102 20.2038 665.102 20.792C665.102 21.3887 664.965 21.9049 664.689 22.3408C664.414 22.7767 664.017 23.1131 663.496 23.3501C662.98 23.5871 662.36 23.7056 661.636 23.7056ZM672.618 25.5146V27H667.698V25.5146H672.618ZM668.32 17.7578V27H666.416V17.7578H668.32ZM671.977 21.522V22.9692H667.698V21.522H671.977ZM672.611 17.7578V19.2495H667.698V17.7578H672.611Z" fill="#64748B"/>
<path d="M916.699 24.5815C916.699 24.4165 916.674 24.2684 916.623 24.1372C916.576 24.0018 916.488 23.8791 916.356 23.769C916.225 23.6548 916.041 23.5426 915.804 23.4326C915.567 23.3226 915.26 23.2083 914.884 23.0898C914.465 22.9544 914.067 22.8021 913.69 22.6328C913.318 22.4635 912.988 22.2668 912.7 22.0425C912.417 21.814 912.192 21.5495 912.027 21.249C911.867 20.9486 911.786 20.5994 911.786 20.2017C911.786 19.8166 911.871 19.4674 912.04 19.1543C912.209 18.8369 912.446 18.5661 912.751 18.3418C913.056 18.1133 913.415 17.9377 913.83 17.8149C914.249 17.6922 914.708 17.6309 915.208 17.6309C915.889 17.6309 916.483 17.7536 916.991 17.999C917.499 18.2445 917.893 18.5809 918.172 19.0083C918.455 19.4357 918.597 19.9245 918.597 20.4746H916.706C916.706 20.2038 916.648 19.9668 916.534 19.7637C916.424 19.5563 916.255 19.3934 916.026 19.2749C915.802 19.1564 915.519 19.0972 915.176 19.0972C914.846 19.0972 914.571 19.1479 914.351 19.2495C914.131 19.3468 913.965 19.4801 913.855 19.6494C913.745 19.8145 913.69 20.0007 913.69 20.208C913.69 20.3646 913.729 20.5063 913.805 20.6333C913.885 20.7603 914.004 20.8787 914.16 20.9888C914.317 21.0988 914.509 21.2025 914.738 21.2998C914.966 21.3971 915.231 21.4924 915.531 21.5854C916.035 21.7378 916.477 21.9092 916.858 22.0996C917.243 22.29 917.565 22.5037 917.823 22.7407C918.081 22.9777 918.276 23.2464 918.407 23.5469C918.538 23.8473 918.604 24.188 918.604 24.5688C918.604 24.9709 918.525 25.3306 918.369 25.6479C918.212 25.9653 917.986 26.234 917.689 26.4541C917.393 26.6742 917.04 26.8413 916.629 26.9556C916.219 27.0698 915.76 27.127 915.252 27.127C914.795 27.127 914.344 27.0677 913.9 26.9492C913.456 26.8265 913.051 26.6424 912.688 26.397C912.328 26.1515 912.04 25.8384 911.824 25.4575C911.608 25.0767 911.5 24.626 911.5 24.1055H913.411C913.411 24.3932 913.456 24.6366 913.544 24.8354C913.633 25.0343 913.758 25.1951 913.919 25.3179C914.084 25.4406 914.279 25.5295 914.503 25.5845C914.731 25.6395 914.981 25.667 915.252 25.667C915.582 25.667 915.853 25.6204 916.064 25.5273C916.28 25.4342 916.439 25.3052 916.541 25.1401C916.646 24.9751 916.699 24.7889 916.699 24.5815ZM924.031 17.7578V27H922.133V17.7578H924.031ZM926.875 17.7578V19.2495H919.333V17.7578H926.875ZM931.032 19.3384L928.519 27H926.494L929.928 17.7578H931.216L931.032 19.3384ZM933.121 27L930.601 19.3384L930.397 17.7578H931.699L935.152 27H933.121ZM933.006 23.5596V25.0513H928.125V23.5596H933.006ZM939.354 17.7578V27H937.456V17.7578H939.354ZM942.198 17.7578V19.2495H934.657V17.7578H942.198ZM948.387 17.7578H950.285V23.8643C950.285 24.5752 950.132 25.174 949.828 25.6606C949.527 26.1473 949.11 26.5133 948.577 26.7588C948.048 27.0042 947.439 27.127 946.749 27.127C946.059 27.127 945.446 27.0042 944.908 26.7588C944.375 26.5133 943.956 26.1473 943.651 25.6606C943.351 25.174 943.201 24.5752 943.201 23.8643V17.7578H945.105V23.8643C945.105 24.279 945.171 24.6175 945.302 24.8799C945.433 25.1423 945.621 25.3348 945.867 25.4575C946.116 25.5802 946.41 25.6416 946.749 25.6416C947.096 25.6416 947.39 25.5802 947.631 25.4575C947.877 25.3348 948.063 25.1423 948.19 24.8799C948.321 24.6175 948.387 24.279 948.387 23.8643V17.7578ZM956.664 24.5815C956.664 24.4165 956.639 24.2684 956.588 24.1372C956.541 24.0018 956.452 23.8791 956.321 23.769C956.19 23.6548 956.006 23.5426 955.769 23.4326C955.532 23.3226 955.225 23.2083 954.849 23.0898C954.43 22.9544 954.032 22.8021 953.655 22.6328C953.283 22.4635 952.953 22.2668 952.665 22.0425C952.382 21.814 952.157 21.5495 951.992 21.249C951.831 20.9486 951.751 20.5994 951.751 20.2017C951.751 19.8166 951.836 19.4674 952.005 19.1543C952.174 18.8369 952.411 18.5661 952.716 18.3418C953.021 18.1133 953.38 17.9377 953.795 17.8149C954.214 17.6922 954.673 17.6309 955.172 17.6309C955.854 17.6309 956.448 17.7536 956.956 17.999C957.464 18.2445 957.857 18.5809 958.137 19.0083C958.42 19.4357 958.562 19.9245 958.562 20.4746H956.67C956.67 20.2038 956.613 19.9668 956.499 19.7637C956.389 19.5563 956.22 19.3934 955.991 19.2749C955.767 19.1564 955.483 19.0972 955.141 19.0972C954.811 19.0972 954.535 19.1479 954.315 19.2495C954.095 19.3468 953.93 19.4801 953.82 19.6494C953.71 19.8145 953.655 20.0007 953.655 20.208C953.655 20.3646 953.693 20.5063 953.77 20.6333C953.85 20.7603 953.968 20.8787 954.125 20.9888C954.282 21.0988 954.474 21.2025 954.703 21.2998C954.931 21.3971 955.196 21.4924 955.496 21.5854C956 21.7378 956.442 21.9092 956.823 22.0996C957.208 22.29 957.529 22.5037 957.788 22.7407C958.046 22.9777 958.24 23.2464 958.372 23.5469C958.503 23.8473 958.568 24.188 958.568 24.5688C958.568 24.9709 958.49 25.3306 958.333 25.6479C958.177 25.9653 957.951 26.234 957.654 26.4541C957.358 26.6742 957.005 26.8413 956.594 26.9556C956.184 27.0698 955.725 27.127 955.217 27.127C954.76 27.127 954.309 27.0677 953.865 26.9492C953.42 26.8265 953.016 26.6424 952.652 26.397C952.293 26.1515 952.005 25.8384 951.789 25.4575C951.573 25.0767 951.465 24.626 951.465 24.1055H953.376C953.376 24.3932 953.42 24.6366 953.509 24.8354C953.598 25.0343 953.723 25.1951 953.884 25.3179C954.049 25.4406 954.243 25.5295 954.468 25.5845C954.696 25.6395 954.946 25.667 955.217 25.667C955.547 25.667 955.818 25.6204 956.029 25.5273C956.245 25.4342 956.404 25.3052 956.505 25.1401C956.611 24.9751 956.664 24.7889 956.664 24.5815Z" fill="#64748B"/>
<path d="M1044.67 17.7578V27H1042.76V17.7578H1044.67ZM1048.35 21.7061V23.1914H1044.15V21.7061H1048.35ZM1048.79 17.7578V19.2495H1044.15V17.7578H1048.79ZM1052.49 19.3384L1049.97 27H1047.95L1051.38 17.7578H1052.67L1052.49 19.3384ZM1054.58 27L1052.06 19.3384L1051.85 17.7578H1053.15L1056.61 27H1054.58ZM1054.46 23.5596V25.0513H1049.58V23.5596H1054.46ZM1062.71 23.9341H1064.6C1064.57 24.5562 1064.4 25.1084 1064.09 25.5908C1063.79 26.0732 1063.37 26.4499 1062.83 26.7207C1062.29 26.9915 1061.64 27.127 1060.89 27.127C1060.29 27.127 1059.76 27.0254 1059.29 26.8223C1058.82 26.6149 1058.42 26.3187 1058.09 25.9336C1057.76 25.5485 1057.5 25.083 1057.33 24.5371C1057.16 23.9912 1057.07 23.3797 1057.07 22.7026V22.0615C1057.07 21.3844 1057.16 20.7729 1057.34 20.2271C1057.52 19.6769 1057.78 19.2093 1058.11 18.8242C1058.45 18.4391 1058.85 18.1429 1059.32 17.9355C1059.79 17.7282 1060.32 17.6245 1060.9 17.6245C1061.67 17.6245 1062.32 17.7642 1062.85 18.0435C1063.38 18.3228 1063.79 18.7078 1064.08 19.1987C1064.38 19.6896 1064.56 20.2482 1064.62 20.8745H1062.71C1062.69 20.5021 1062.62 20.1868 1062.49 19.9287C1062.36 19.6663 1062.17 19.4696 1061.91 19.3384C1061.66 19.203 1061.32 19.1353 1060.9 19.1353C1060.58 19.1353 1060.3 19.1945 1060.07 19.313C1059.83 19.4315 1059.63 19.6113 1059.47 19.8525C1059.31 20.0938 1059.19 20.3984 1059.11 20.7666C1059.03 21.1305 1058.99 21.5579 1058.99 22.0488V22.7026C1058.99 23.1808 1059.03 23.6019 1059.1 23.9658C1059.17 24.3255 1059.28 24.6302 1059.43 24.8799C1059.58 25.1253 1059.78 25.3115 1060.02 25.4385C1060.26 25.5612 1060.55 25.6226 1060.89 25.6226C1061.28 25.6226 1061.61 25.5591 1061.87 25.4321C1062.13 25.3052 1062.32 25.1169 1062.46 24.8672C1062.6 24.6175 1062.68 24.3065 1062.71 23.9341ZM1069.8 17.7578V27H1067.9V17.7578H1069.8ZM1072.64 17.7578V19.2495H1065.1V17.7578H1072.64ZM1078.83 17.7578H1080.73V23.8643C1080.73 24.5752 1080.58 25.174 1080.27 25.6606C1079.97 26.1473 1079.55 26.5133 1079.02 26.7588C1078.49 27.0042 1077.88 27.127 1077.19 27.127C1076.5 27.127 1075.89 27.0042 1075.35 26.7588C1074.82 26.5133 1074.4 26.1473 1074.09 25.6606C1073.79 25.174 1073.64 24.5752 1073.64 23.8643V17.7578H1075.55V23.8643C1075.55 24.279 1075.61 24.6175 1075.75 24.8799C1075.88 25.1423 1076.06 25.3348 1076.31 25.4575C1076.56 25.5802 1076.85 25.6416 1077.19 25.6416C1077.54 25.6416 1077.83 25.5802 1078.07 25.4575C1078.32 25.3348 1078.51 25.1423 1078.63 24.8799C1078.76 24.6175 1078.83 24.279 1078.83 23.8643V17.7578ZM1087.4 17.7578H1089.3V23.8643C1089.3 24.5752 1089.15 25.174 1088.84 25.6606C1088.54 26.1473 1088.12 26.5133 1087.59 26.7588C1087.06 27.0042 1086.45 27.127 1085.76 27.127C1085.07 27.127 1084.46 27.0042 1083.92 26.7588C1083.39 26.5133 1082.97 26.1473 1082.66 25.6606C1082.36 25.174 1082.21 24.5752 1082.21 23.8643V17.7578H1084.12V23.8643C1084.12 24.279 1084.18 24.6175 1084.31 24.8799C1084.45 25.1423 1084.63 25.3348 1084.88 25.4575C1085.13 25.5802 1085.42 25.6416 1085.76 25.6416C1086.11 25.6416 1086.4 25.5802 1086.64 25.4575C1086.89 25.3348 1087.08 25.1423 1087.2 24.8799C1087.33 24.6175 1087.4 24.279 1087.4 23.8643V17.7578ZM1090.87 17.7578H1094.31C1095.02 17.7578 1095.63 17.8636 1096.13 18.0752C1096.65 18.2868 1097.04 18.5999 1097.31 19.0146C1097.59 19.4294 1097.73 19.9393 1097.73 20.5444C1097.73 21.0396 1097.64 21.4648 1097.47 21.8203C1097.31 22.1715 1097.07 22.4657 1096.77 22.7026C1096.47 22.9354 1096.11 23.1216 1095.71 23.2612L1095.11 23.5786H1092.11L1092.1 22.0933H1094.32C1094.66 22.0933 1094.94 22.034 1095.16 21.9155C1095.38 21.797 1095.54 21.632 1095.65 21.4204C1095.77 21.2088 1095.82 20.9634 1095.82 20.6841C1095.82 20.3879 1095.77 20.1318 1095.66 19.916C1095.55 19.7002 1095.38 19.5352 1095.16 19.4209C1094.93 19.3066 1094.65 19.2495 1094.31 19.2495H1092.77V27H1090.87V17.7578ZM1096.03 27L1093.92 22.8804L1095.94 22.8677L1098.07 26.9111V27H1096.03Z" fill="#64748B"/>
<path d="M1175 17.7578V27H1173.09V17.7578H1175ZM1178.68 21.7061V23.1914H1174.47V21.7061H1178.68ZM1179.12 17.7578V19.2495H1174.47V17.7578H1179.12ZM1182.82 19.3384L1180.3 27H1178.28L1181.71 17.7578H1183L1182.82 19.3384ZM1184.9 27L1182.38 19.3384L1182.18 17.7578H1183.48L1186.94 27H1184.9ZM1184.79 23.5596V25.0513H1179.91V23.5596H1184.79ZM1193.04 23.9341H1194.93C1194.9 24.5562 1194.72 25.1084 1194.42 25.5908C1194.12 26.0732 1193.7 26.4499 1193.16 26.7207C1192.62 26.9915 1191.97 27.127 1191.21 27.127C1190.62 27.127 1190.09 27.0254 1189.62 26.8223C1189.15 26.6149 1188.75 26.3187 1188.41 25.9336C1188.08 25.5485 1187.83 25.083 1187.66 24.5371C1187.49 23.9912 1187.4 23.3797 1187.4 22.7026V22.0615C1187.4 21.3844 1187.49 20.7729 1187.67 20.2271C1187.85 19.6769 1188.11 19.2093 1188.44 18.8242C1188.78 18.4391 1189.18 18.1429 1189.65 17.9355C1190.12 17.7282 1190.65 17.6245 1191.23 17.6245C1192 17.6245 1192.65 17.7642 1193.17 18.0435C1193.71 18.3228 1194.12 18.7078 1194.41 19.1987C1194.71 19.6896 1194.89 20.2482 1194.95 20.8745H1193.04C1193.02 20.5021 1192.95 20.1868 1192.82 19.9287C1192.69 19.6663 1192.5 19.4696 1192.24 19.3384C1191.99 19.203 1191.65 19.1353 1191.23 19.1353C1190.91 19.1353 1190.63 19.1945 1190.39 19.313C1190.16 19.4315 1189.96 19.6113 1189.8 19.8525C1189.64 20.0938 1189.52 20.3984 1189.44 20.7666C1189.36 21.1305 1189.32 21.5579 1189.32 22.0488V22.7026C1189.32 23.1808 1189.36 23.6019 1189.43 23.9658C1189.5 24.3255 1189.61 24.6302 1189.76 24.8799C1189.91 25.1253 1190.11 25.3115 1190.34 25.4385C1190.58 25.5612 1190.87 25.6226 1191.21 25.6226C1191.61 25.6226 1191.94 25.5591 1192.2 25.4321C1192.46 25.3052 1192.65 25.1169 1192.79 24.8672C1192.93 24.6175 1193.01 24.3065 1193.04 23.9341ZM1200.13 17.7578V27H1198.23V17.7578H1200.13ZM1202.97 17.7578V19.2495H1195.43V17.7578H1202.97ZM1209.16 17.7578H1211.06V23.8643C1211.06 24.5752 1210.9 25.174 1210.6 25.6606C1210.3 26.1473 1209.88 26.5133 1209.35 26.7588C1208.82 27.0042 1208.21 27.127 1207.52 27.127C1206.83 27.127 1206.22 27.0042 1205.68 26.7588C1205.15 26.5133 1204.73 26.1473 1204.42 25.6606C1204.12 25.174 1203.97 24.5752 1203.97 23.8643V17.7578H1205.88V23.8643C1205.88 24.279 1205.94 24.6175 1206.07 24.8799C1206.2 25.1423 1206.39 25.3348 1206.64 25.4575C1206.89 25.5802 1207.18 25.6416 1207.52 25.6416C1207.87 25.6416 1208.16 25.5802 1208.4 25.4575C1208.65 25.3348 1208.83 25.1423 1208.96 24.8799C1209.09 24.6175 1209.16 24.279 1209.16 23.8643V17.7578ZM1217.73 17.7578H1219.63V23.8643C1219.63 24.5752 1219.47 25.174 1219.17 25.6606C1218.87 26.1473 1218.45 26.5133 1217.92 26.7588C1217.39 27.0042 1216.78 27.127 1216.09 27.127C1215.4 27.127 1214.79 27.0042 1214.25 26.7588C1213.72 26.5133 1213.3 26.1473 1212.99 25.6606C1212.69 25.174 1212.54 24.5752 1212.54 23.8643V17.7578H1214.45V23.8643C1214.45 24.279 1214.51 24.6175 1214.64 24.8799C1214.77 25.1423 1214.96 25.3348 1215.21 25.4575C1215.46 25.5802 1215.75 25.6416 1216.09 25.6416C1216.44 25.6416 1216.73 25.5802 1216.97 25.4575C1217.22 25.3348 1217.4 25.1423 1217.53 24.8799C1217.66 24.6175 1217.73 24.279 1217.73 23.8643V17.7578ZM1221.19 17.7578H1224.64C1225.35 17.7578 1225.95 17.8636 1226.46 18.0752C1226.97 18.2868 1227.37 18.5999 1227.64 19.0146C1227.92 19.4294 1228.06 19.9393 1228.06 20.5444C1228.06 21.0396 1227.97 21.4648 1227.8 21.8203C1227.64 22.1715 1227.4 22.4657 1227.1 22.7026C1226.8 22.9354 1226.44 23.1216 1226.04 23.2612L1225.43 23.5786H1222.44L1222.42 22.0933H1224.65C1224.99 22.0933 1225.26 22.034 1225.48 21.9155C1225.7 21.797 1225.87 21.632 1225.98 21.4204C1226.09 21.2088 1226.15 20.9634 1226.15 20.6841C1226.15 20.3879 1226.1 20.1318 1225.99 19.916C1225.88 19.7002 1225.71 19.5352 1225.48 19.4209C1225.26 19.3066 1224.98 19.2495 1224.64 19.2495H1223.1V27H1221.19V17.7578ZM1226.36 27L1224.25 22.8804L1226.27 22.8677L1228.4 26.9111V27H1226.36ZM1233.14 22.9438H1230.77L1230.75 21.6362H1232.75C1233.1 21.6362 1233.39 21.5918 1233.61 21.5029C1233.83 21.4098 1234 21.2765 1234.11 21.103C1234.23 20.9253 1234.28 20.7095 1234.28 20.4556C1234.28 20.1678 1234.23 19.9351 1234.12 19.7573C1234.01 19.5796 1233.84 19.4505 1233.62 19.3701C1233.39 19.2897 1233.1 19.2495 1232.75 19.2495H1231.43V27H1229.52V17.7578H1232.75C1233.28 17.7578 1233.76 17.8086 1234.19 17.9102C1234.61 18.0117 1234.98 18.1662 1235.27 18.3735C1235.57 18.5809 1235.8 18.8433 1235.95 19.1606C1236.11 19.4738 1236.19 19.8462 1236.19 20.2778C1236.19 20.6587 1236.1 21.0099 1235.93 21.3315C1235.76 21.6532 1235.49 21.9155 1235.12 22.1187C1234.76 22.3218 1234.28 22.4339 1233.69 22.4551L1233.14 22.9438ZM1233.06 27H1230.25L1230.99 25.5146H1233.06C1233.39 25.5146 1233.66 25.4618 1233.88 25.356C1234.09 25.2459 1234.24 25.0978 1234.35 24.9116C1234.45 24.7254 1234.5 24.5117 1234.5 24.2705C1234.5 23.9997 1234.45 23.7648 1234.36 23.5659C1234.27 23.367 1234.13 23.2147 1233.93 23.1089C1233.73 22.9989 1233.47 22.9438 1233.14 22.9438H1231.31L1231.32 21.6362H1233.6L1234.04 22.1504C1234.6 22.1419 1235.06 22.2414 1235.4 22.4487C1235.75 22.6519 1236 22.9163 1236.15 23.2422C1236.32 23.568 1236.4 23.9172 1236.4 24.2896C1236.4 24.882 1236.27 25.3813 1236.01 25.7876C1235.75 26.1896 1235.37 26.4922 1234.87 26.6953C1234.38 26.8984 1233.77 27 1233.06 27ZM1244.03 25.5146V27H1239.11V25.5146H1244.03ZM1239.73 17.7578V27H1237.82V17.7578H1239.73ZM1243.38 21.522V22.9692H1239.11V21.522H1243.38ZM1244.02 17.7578V19.2495H1239.11V17.7578H1244.02ZM1247.97 27H1245.96L1245.97 25.5146H1247.97C1248.47 25.5146 1248.89 25.4025 1249.24 25.1782C1249.58 24.9497 1249.84 24.6175 1250.01 24.1816C1250.19 23.7458 1250.28 23.2189 1250.28 22.6011V22.1504C1250.28 21.6764 1250.23 21.2596 1250.13 20.8999C1250.03 20.5402 1249.88 20.2376 1249.69 19.9922C1249.49 19.7467 1249.25 19.5627 1248.97 19.4399C1248.69 19.313 1248.36 19.2495 1247.99 19.2495H1245.92V17.7578H1247.99C1248.61 17.7578 1249.18 17.8636 1249.69 18.0752C1250.2 18.2826 1250.65 18.5809 1251.03 18.9702C1251.4 19.3595 1251.69 19.825 1251.9 20.3667C1252.1 20.9041 1252.21 21.5029 1252.21 22.1631V22.6011C1252.21 23.257 1252.1 23.8558 1251.9 24.3975C1251.69 24.9391 1251.4 25.4046 1251.03 25.7939C1250.65 26.179 1250.21 26.4774 1249.69 26.689C1249.17 26.8963 1248.6 27 1247.97 27ZM1247.04 17.7578V27H1245.14V17.7578H1247.04ZM1253.59 17.7578H1257.04C1257.75 17.7578 1258.35 17.8636 1258.86 18.0752C1259.37 18.2868 1259.77 18.5999 1260.04 19.0146C1260.32 19.4294 1260.45 19.9393 1260.45 20.5444C1260.45 21.0396 1260.37 21.4648 1260.2 21.8203C1260.03 22.1715 1259.8 22.4657 1259.5 22.7026C1259.19 22.9354 1258.84 23.1216 1258.44 23.2612L1257.83 23.5786H1254.84L1254.82 22.0933H1257.05C1257.39 22.0933 1257.66 22.034 1257.88 21.9155C1258.1 21.797 1258.27 21.632 1258.38 21.4204C1258.49 21.2088 1258.55 20.9634 1258.55 20.6841C1258.55 20.3879 1258.49 20.1318 1258.38 19.916C1258.27 19.7002 1258.11 19.5352 1257.88 19.4209C1257.66 19.3066 1257.38 19.2495 1257.04 19.2495H1255.5V27H1253.59V17.7578ZM1258.76 27L1256.65 22.8804L1258.66 22.8677L1260.8 26.9111V27H1258.76ZM1265.68 19.3384L1263.16 27H1261.14L1264.57 17.7578H1265.86L1265.68 19.3384ZM1267.77 27L1265.25 19.3384L1265.04 17.7578H1266.34L1269.8 27H1267.77ZM1267.65 23.5596V25.0513H1262.77V23.5596H1267.65ZM1277.87 22.1694V25.832C1277.72 26.0055 1277.5 26.1938 1277.2 26.397C1276.9 26.5959 1276.51 26.7673 1276.04 26.9111C1275.56 27.055 1274.99 27.127 1274.32 27.127C1273.72 27.127 1273.18 27.0296 1272.69 26.835C1272.19 26.6361 1271.77 26.3462 1271.42 25.9653C1271.06 25.5845 1270.79 25.119 1270.6 24.5688C1270.41 24.0145 1270.32 23.3818 1270.32 22.6709V22.0933C1270.32 21.3823 1270.41 20.7497 1270.59 20.1953C1270.78 19.641 1271.04 19.1733 1271.38 18.7925C1271.73 18.4116 1272.14 18.1217 1272.61 17.9229C1273.08 17.724 1273.61 17.6245 1274.19 17.6245C1274.99 17.6245 1275.65 17.7557 1276.17 18.0181C1276.69 18.2762 1277.08 18.6359 1277.35 19.0972C1277.63 19.5542 1277.8 20.0789 1277.86 20.6714H1276.01C1275.97 20.3582 1275.88 20.0853 1275.75 19.8525C1275.61 19.6198 1275.43 19.4378 1275.18 19.3066C1274.94 19.1755 1274.63 19.1099 1274.24 19.1099C1273.92 19.1099 1273.64 19.1755 1273.39 19.3066C1273.14 19.4336 1272.94 19.6219 1272.77 19.8716C1272.6 20.1213 1272.47 20.4302 1272.38 20.7983C1272.29 21.1665 1272.25 21.5939 1272.25 22.0806V22.6709C1272.25 23.1533 1272.29 23.5807 1272.39 23.9531C1272.48 24.3213 1272.62 24.6323 1272.8 24.8862C1272.99 25.1359 1273.21 25.3242 1273.49 25.4512C1273.76 25.5781 1274.07 25.6416 1274.43 25.6416C1274.73 25.6416 1274.98 25.6162 1275.18 25.5654C1275.38 25.5146 1275.55 25.4533 1275.67 25.3813C1275.8 25.3052 1275.89 25.2332 1275.96 25.1655V23.5278H1274.22V22.1694H1277.87Z" fill="#64748B"/>
<path d="M1351.85 19.3384L1349.33 27H1347.31L1350.74 17.7578H1352.03L1351.85 19.3384ZM1353.94 27L1351.42 19.3384L1351.21 17.7578H1352.52L1355.97 27H1353.94ZM1353.82 23.5596V25.0513H1348.94V23.5596H1353.82ZM1362.07 23.9341H1363.97C1363.93 24.5562 1363.76 25.1084 1363.45 25.5908C1363.15 26.0732 1362.73 26.4499 1362.19 26.7207C1361.65 26.9915 1361 27.127 1360.25 27.127C1359.65 27.127 1359.12 27.0254 1358.65 26.8223C1358.18 26.6149 1357.78 26.3187 1357.45 25.9336C1357.12 25.5485 1356.87 25.083 1356.69 24.5371C1356.52 23.9912 1356.43 23.3797 1356.43 22.7026V22.0615C1356.43 21.3844 1356.52 20.7729 1356.7 20.2271C1356.88 19.6769 1357.14 19.2093 1357.47 18.8242C1357.81 18.4391 1358.22 18.1429 1358.69 17.9355C1359.15 17.7282 1359.68 17.6245 1360.26 17.6245C1361.03 17.6245 1361.68 17.7642 1362.21 18.0435C1362.74 18.3228 1363.15 18.7078 1363.45 19.1987C1363.74 19.6896 1363.92 20.2482 1363.98 20.8745H1362.07C1362.05 20.5021 1361.98 20.1868 1361.85 19.9287C1361.73 19.6663 1361.53 19.4696 1361.27 19.3384C1361.02 19.203 1360.68 19.1353 1360.26 19.1353C1359.94 19.1353 1359.66 19.1945 1359.43 19.313C1359.19 19.4315 1358.99 19.6113 1358.83 19.8525C1358.67 20.0938 1358.55 20.3984 1358.47 20.7666C1358.39 21.1305 1358.35 21.5579 1358.35 22.0488V22.7026C1358.35 23.1808 1358.39 23.6019 1358.46 23.9658C1358.53 24.3255 1358.64 24.6302 1358.79 24.8799C1358.95 25.1253 1359.14 25.3115 1359.38 25.4385C1359.62 25.5612 1359.91 25.6226 1360.25 25.6226C1360.64 25.6226 1360.97 25.5591 1361.23 25.4321C1361.49 25.3052 1361.69 25.1169 1361.82 24.8672C1361.96 24.6175 1362.04 24.3065 1362.07 23.9341ZM1369.16 17.7578V27H1367.26V17.7578H1369.16ZM1372 17.7578V19.2495H1364.46V17.7578H1372ZM1375.11 17.7578V27H1373.21V17.7578H1375.11ZM1383.1 25.5146V27H1378.18V25.5146H1383.1ZM1378.8 17.7578V27H1376.9V17.7578H1378.8ZM1382.46 21.522V22.9692H1378.18V21.522H1382.46ZM1383.09 17.7578V19.2495H1378.18V17.7578H1383.09ZM1389.02 24.5815C1389.02 24.4165 1389 24.2684 1388.94 24.1372C1388.9 24.0018 1388.81 23.8791 1388.68 23.769C1388.55 23.6548 1388.36 23.5426 1388.13 23.4326C1387.89 23.3226 1387.58 23.2083 1387.21 23.0898C1386.79 22.9544 1386.39 22.8021 1386.01 22.6328C1385.64 22.4635 1385.31 22.2668 1385.02 22.0425C1384.74 21.814 1384.51 21.5495 1384.35 21.249C1384.19 20.9486 1384.11 20.5994 1384.11 20.2017C1384.11 19.8166 1384.19 19.4674 1384.36 19.1543C1384.53 18.8369 1384.77 18.5661 1385.07 18.3418C1385.38 18.1133 1385.74 17.9377 1386.15 17.8149C1386.57 17.6922 1387.03 17.6309 1387.53 17.6309C1388.21 17.6309 1388.8 17.7536 1389.31 17.999C1389.82 18.2445 1390.21 18.5809 1390.49 19.0083C1390.78 19.4357 1390.92 19.9245 1390.92 20.4746H1389.03C1389.03 20.2038 1388.97 19.9668 1388.86 19.7637C1388.75 19.5563 1388.58 19.3934 1388.35 19.2749C1388.12 19.1564 1387.84 19.0972 1387.5 19.0972C1387.17 19.0972 1386.89 19.1479 1386.67 19.2495C1386.45 19.3468 1386.29 19.4801 1386.18 19.6494C1386.07 19.8145 1386.01 20.0007 1386.01 20.208C1386.01 20.3646 1386.05 20.5063 1386.13 20.6333C1386.21 20.7603 1386.32 20.8787 1386.48 20.9888C1386.64 21.0988 1386.83 21.2025 1387.06 21.2998C1387.29 21.3971 1387.55 21.4924 1387.85 21.5854C1388.36 21.7378 1388.8 21.9092 1389.18 22.0996C1389.56 22.29 1389.89 22.5037 1390.14 22.7407C1390.4 22.9777 1390.6 23.2464 1390.73 23.5469C1390.86 23.8473 1390.92 24.188 1390.92 24.5688C1390.92 24.9709 1390.85 25.3306 1390.69 25.6479C1390.53 25.9653 1390.31 26.234 1390.01 26.4541C1389.71 26.6742 1389.36 26.8413 1388.95 26.9556C1388.54 27.0698 1388.08 27.127 1387.57 27.127C1387.12 27.127 1386.67 27.0677 1386.22 26.9492C1385.78 26.8265 1385.37 26.6424 1385.01 26.397C1384.65 26.1515 1384.36 25.8384 1384.15 25.4575C1383.93 25.0767 1383.82 24.626 1383.82 24.1055H1385.73C1385.73 24.3932 1385.78 24.6366 1385.87 24.8354C1385.95 25.0343 1386.08 25.1951 1386.24 25.3179C1386.41 25.4406 1386.6 25.5295 1386.82 25.5845C1387.05 25.6395 1387.3 25.667 1387.57 25.667C1387.9 25.667 1388.17 25.6204 1388.39 25.5273C1388.6 25.4342 1388.76 25.3052 1388.86 25.1401C1388.97 24.9751 1389.02 24.7889 1389.02 24.5815Z" fill="#64748B"/>
<path d="M786.583 19.3384L784.069 27H782.044L785.479 17.7578H786.767L786.583 19.3384ZM788.671 27L786.151 19.3384L785.948 17.7578H787.25L790.703 27H788.671ZM788.557 23.5596V25.0513H783.676V23.5596H788.557ZM795.317 19.3384L792.804 27H790.779L794.213 17.7578H795.501L795.317 19.3384ZM797.406 27L794.886 19.3384L794.683 17.7578H795.984L799.437 27H797.406ZM797.292 23.5596V25.0513H792.41V23.5596H797.292ZM807.816 17.7578V27H805.912L802.198 20.8047V27H800.294V17.7578H802.198L805.918 23.9595V17.7578H807.816ZM813.415 17.7578V27H811.517V17.7578H813.415ZM816.258 17.7578V19.2495H808.717V17.7578H816.258ZM820.416 19.3384L817.902 27H815.877L819.312 17.7578H820.6L820.416 19.3384ZM822.504 27L819.984 19.3384L819.781 17.7578H821.083L824.536 27H822.504ZM822.39 23.5596V25.0513H817.509V23.5596H822.39ZM829.15 19.3384L826.637 27H824.612L828.046 17.7578H829.334L829.15 19.3384ZM831.239 27L828.719 19.3384L828.516 17.7578H829.817L833.27 27H831.239ZM831.125 23.5596V25.0513H826.243V23.5596H831.125ZM840.068 25.5146V27H835.416V25.5146H840.068ZM836.031 17.7578V27H834.127V17.7578H836.031Z" fill="#64748B"/>
</svg>
